<svg xmlns="http://www.w3.org/2000/svg" fill="#f5f5f5" width="1024" height="512"><rect width="100%" height="100%" fill="none"/><path d="M193 452.1v-37.4h-82.7v57.1H193zM6 377.2v94.6h82.6v-132H6zM88.6 190v-37.5H6v56.2h82.6zm0 112.3v-74.9H6v93.7h82.6zm104.4 0v-74.9h-82.7v93.7H193zm0 74.9v-37.4h-82.7V396H193zm0-187.2v-74.9h-82.7v93.6H193zm0-112.4V40.2h-82.7v56.2H193zm21.7 262.2h82.6v18.7h-82.6zm82.6 112.3v-74.9h-82.6v94.6h82.6zM319 227.4h82.6v18.7H319zm82.7 224.7V339.8H319v132h82.7zm0-149.8v-37.4H319v56.2h82.7zM506 227.4V190h-82.6v56.2H506zM423.4 77.6H506v18.7h-82.6zm82.6 74.9v-37.4h-82.6v56.2H506zm0 187.3v-74.9h-82.6v93.6H506zm0 112.3v-74.9h-82.6v94.6H506zm211.138-2.069v-37.4h-82.7v57.1h82.7zm-187-74.9v94.6h82.6v-132h-82.6zm82.6-187.2v-37.5h-82.6v56.2h82.6zm0 112.3v-74.9h-82.6v93.7h82.6zm104.4 0v-74.9h-82.7v93.7h82.7zm0 74.9v-37.4h-82.7v56.2h82.7zm0-187.2v-74.9h-82.7v93.6h82.7zm0-112.4v-37.4h-82.7v56.2h82.7zm21.7 262.2h82.6v18.7h-82.6zm82.6 112.3v-74.9h-82.6v94.6h82.6zm21.7-224.7h82.6v18.7h-82.6zm82.7 224.7v-112.3h-82.7v132h82.7zm0-149.8v-37.4h-82.7v56.2h82.7zm104.3-74.9v-37.4h-82.6v56.2h82.6zm-82.6-149.8h82.6v18.7h-82.6zm82.6 74.9v-37.4h-82.6v56.2h82.6zm0 187.3v-74.9h-82.6v93.6h82.6zm0 112.3v-74.9h-82.6v94.6h82.6z"/></svg>